<?xml version="1.0" encoding="UTF-8"?>
<svg width="535.5" height="535.5" xmlns="http://www.w3.org/2000/svg" xmlns:svg="http://www.w3.org/2000/svg">

 <g>
  <title>Layer 1</title>
  <g id="svg_1">
   <g id="timer">
    <path id="svg_2" fill="#FA4659" d="m329.833344,38.25l-126.666672,0l0,42.809525l126.666672,0l0,-42.809525zm-84.444458,278.261902l42.222229,0l0,-128.428574l-42.222229,0l0,128.428574zm168.888885,-141.271423l31.666656,-29.966675c-10.555542,-10.702377 -21.111084,-21.404755 -31.666656,-29.96666l-29.555573,29.96666c-31.666656,-25.685707 -73.888885,-42.809517 -118.222198,-42.809517c-105.555557,0 -190,85.619041 -190,192.64286s84.444443,192.642853 190,192.642853s190,-85.619049 190,-192.642853c0,-44.949997 -14.777802,-87.759521 -42.222229,-119.866669zm-147.777771,269.700012c-82.333328,0 -147.777779,-66.354767 -147.777779,-149.833344s65.44445,-149.833344 147.777779,-149.833344s147.777771,66.354767 147.777771,149.833344s-65.444427,149.833344 -147.777771,149.833344z"/>
   </g>
  </g>
  <g id="svg_3"/>
  <g id="svg_4"/>
  <g id="svg_5"/>
  <g id="svg_6"/>
  <g id="svg_7"/>
  <g id="svg_8"/>
  <g id="svg_9"/>
  <g id="svg_10"/>
  <g id="svg_11"/>
  <g id="svg_12"/>
  <g id="svg_13"/>
  <g id="svg_14"/>
  <g id="svg_15"/>
  <g id="svg_16"/>
  <g id="svg_17"/>
 </g>
</svg>